<svg xmlns="http://www.w3.org/2000/svg" xmlns:xlink="http://www.w3.org/1999/xlink" width="400" zoomAndPan="magnify" viewBox="0 0 300 307.91998" height="400" preserveAspectRatio="xMidYMid meet" version="1.0"><defs><clipPath id="7b400cb605"><path d="M 0.0390625 0 L 299.960938 0 L 299.960938 299.921875 L 0.0390625 299.921875 Z M 0.0390625 0 " clip-rule="nonzero"/></clipPath><clipPath id="2ac7690339"><path d="M 117 117 L 231.019531 117 L 231.019531 230.980469 L 117 230.980469 Z M 117 117 " clip-rule="nonzero"/></clipPath><clipPath id="bb734f9be9"><path d="M 69.0625 69.023438 L 125 69.023438 L 125 125 L 69.0625 125 Z M 69.0625 69.023438 " clip-rule="nonzero"/></clipPath></defs><g clip-path="url(#7b400cb605)"><path fill="#ffffff" d="M 0.0390625 0 L 299.960938 0 L 299.960938 299.921875 L 0.0390625 299.921875 Z M 0.0390625 0 " fill-opacity="1" fill-rule="nonzero"/><path fill="#ffffff" d="M 0.0390625 0 L 299.960938 0 L 299.960938 299.921875 L 0.0390625 299.921875 Z M 0.0390625 0 " fill-opacity="1" fill-rule="nonzero"/></g><g clip-path="url(#2ac7690339)"><path fill="#f2ca4b" d="M 174.4375 230.949219 C 159.941406 230.949219 145.449219 225.433594 134.390625 214.378906 C 112.308594 192.296875 112.308594 156.398438 134.390625 134.316406 C 156.472656 112.234375 192.367188 112.234375 214.449219 134.316406 C 236.53125 156.398438 236.53125 192.296875 214.449219 214.378906 C 203.425781 225.433594 188.933594 230.949219 174.4375 230.949219 Z M 138.234375 210.566406 C 158.171875 230.503906 190.667969 230.503906 210.605469 210.566406 C 230.542969 190.628906 230.542969 158.167969 210.605469 138.195312 C 190.667969 118.222656 158.207031 118.257812 138.234375 138.195312 C 118.261719 158.132812 118.296875 190.59375 138.234375 210.566406 Z M 138.234375 210.566406 " fill-opacity="1" fill-rule="nonzero"/></g><path fill="#f2ca4b" d="M 174.4375 218.800781 C 163.039062 218.800781 151.675781 214.480469 143 205.804688 C 134.320312 197.125 130 186.273438 130 174.363281 C 130 162.457031 134.628906 151.296875 143 142.925781 C 144.054688 141.871094 145.789062 141.871094 146.84375 142.925781 C 147.898438 143.980469 147.898438 145.714844 146.84375 146.769531 C 131.632812 161.980469 131.632812 186.75 146.84375 201.957031 C 162.050781 217.167969 186.820312 217.167969 202.03125 201.957031 C 217.242188 186.75 217.242188 161.980469 202.03125 146.769531 C 200.976562 145.714844 200.976562 143.980469 202.03125 142.925781 C 203.085938 141.871094 204.820312 141.871094 205.875 142.925781 C 223.230469 160.277344 223.230469 188.484375 205.875 205.804688 C 197.199219 214.480469 185.835938 218.800781 174.4375 218.800781 Z M 174.4375 218.800781 " fill-opacity="1" fill-rule="nonzero"/><path fill="#f2ca4b" d="M 174.402344 206.652344 C 165.863281 206.652344 157.695312 203.285156 151.574219 197.195312 C 150.519531 196.140625 150.519531 194.40625 151.574219 193.351562 C 152.628906 192.296875 154.363281 192.296875 155.417969 193.351562 C 161.066406 199 168.890625 201.820312 176.921875 201.074219 C 183.148438 200.496094 189 197.738281 193.390625 193.351562 C 198.457031 188.28125 201.25 181.542969 201.25 174.363281 C 201.25 167.183594 198.457031 160.449219 193.390625 155.378906 C 189.167969 151.160156 183.792969 148.503906 177.839844 147.757812 C 176.34375 147.550781 175.289062 146.191406 175.492188 144.730469 C 175.695312 143.230469 177.058594 142.175781 178.554688 142.382812 C 185.699219 143.300781 192.164062 146.464844 197.269531 151.566406 C 203.359375 157.65625 206.726562 165.757812 206.726562 174.398438 C 206.726562 183.039062 203.359375 191.136719 197.269531 197.230469 C 191.960938 202.535156 184.917969 205.835938 177.429688 206.550781 C 176.445312 206.621094 175.425781 206.652344 174.402344 206.652344 Z M 174.402344 206.652344 " fill-opacity="1" fill-rule="nonzero"/><path fill="#f2ca4b" d="M 174.4375 194.472656 C 169.300781 194.472656 164.128906 192.5 160.214844 188.585938 C 152.390625 180.761719 152.390625 167.96875 160.214844 160.140625 C 168.039062 152.316406 180.832031 152.316406 188.660156 160.140625 C 196.484375 167.96875 196.484375 180.761719 188.660156 188.585938 C 184.746094 192.5 179.609375 194.472656 174.4375 194.472656 Z M 174.4375 159.699219 C 170.695312 159.699219 166.917969 161.128906 164.058594 163.988281 C 158.34375 169.703125 158.34375 179.027344 164.058594 184.742188 C 166.816406 187.496094 170.523438 189.027344 174.4375 189.027344 C 178.351562 189.027344 182.058594 187.496094 184.816406 184.742188 C 187.570312 181.984375 189.101562 178.277344 189.101562 174.363281 C 189.101562 170.453125 187.570312 166.742188 184.816406 163.988281 C 182.058594 161.230469 178.179688 159.699219 174.4375 159.699219 Z M 174.4375 159.699219 " fill-opacity="1" fill-rule="nonzero"/><g clip-path="url(#bb734f9be9)"><path fill="#f2ca4b" d="M 93.152344 124.585938 C 92.4375 124.585938 91.722656 124.3125 91.210938 123.804688 L 69.878906 102.46875 C 69.097656 101.6875 68.859375 100.53125 69.265625 99.542969 C 69.675781 98.523438 70.628906 97.875 71.714844 97.84375 L 97.167969 97.160156 L 97.847656 71.710938 C 97.882812 70.621094 98.5625 69.667969 99.546875 69.261719 C 100.570312 68.851562 101.726562 69.089844 102.476562 69.875 L 123.875 91.171875 C 124.386719 91.683594 124.691406 92.398438 124.660156 93.113281 L 124.351562 121.589844 C 124.351562 123.089844 123.128906 124.28125 121.664062 124.28125 L 93.152344 124.585938 C 93.1875 124.585938 93.152344 124.585938 93.152344 124.585938 Z M 78.214844 103.082031 L 94.273438 119.140625 L 118.941406 118.871094 L 119.214844 94.203125 L 103.15625 78.140625 L 102.578125 99.851562 C 102.542969 101.277344 101.386719 102.46875 99.921875 102.503906 Z M 78.214844 103.082031 " fill-opacity="1" fill-rule="nonzero"/></g><path fill="#f2ca4b" d="M 175.425781 178.074219 C 174.742188 178.074219 174.027344 177.800781 173.484375 177.289062 L 119.726562 123.53125 C 118.671875 122.476562 118.671875 120.742188 119.726562 119.6875 C 120.78125 118.632812 122.515625 118.632812 123.570312 119.6875 L 177.328125 173.445312 C 178.382812 174.5 178.382812 176.234375 177.328125 177.289062 C 176.820312 177.800781 176.105469 178.074219 175.425781 178.074219 Z M 175.425781 178.074219 " fill-opacity="1" fill-rule="nonzero"/></svg>