<svg xmlns="http://www.w3.org/2000/svg" xmlns:xlink="http://www.w3.org/1999/xlink" width="400" zoomAndPan="magnify" viewBox="0 0 300 307.91998" height="400" preserveAspectRatio="xMidYMid meet" version="1.0"><defs><clipPath id="b0384360cd"><path d="M 0.0390625 0 L 299.960938 0 L 299.960938 299.921875 L 0.0390625 299.921875 Z M 0.0390625 0 " clip-rule="nonzero"/></clipPath><clipPath id="677900fb2c"><path d="M 146 85.816406 L 153 85.816406 L 153 110 L 146 110 Z M 146 85.816406 " clip-rule="nonzero"/></clipPath><clipPath id="a1f5ae366c"><path d="M 69.695312 131 L 230.152344 131 L 230.152344 214.035156 L 69.695312 214.035156 Z M 69.695312 131 " clip-rule="nonzero"/></clipPath></defs><g clip-path="url(#b0384360cd)"><path fill="#ffffff" d="M 0.0390625 0 L 299.960938 0 L 299.960938 299.921875 L 0.0390625 299.921875 Z M 0.0390625 0 " fill-opacity="1" fill-rule="nonzero"/><path fill="#ffffff" d="M 0.0390625 0 L 299.960938 0 L 299.960938 299.921875 L 0.0390625 299.921875 Z M 0.0390625 0 " fill-opacity="1" fill-rule="nonzero"/></g><path fill="#f2ca4b" d="M 107.359375 124.234375 C 108.539062 125.414062 108.578125 127.300781 107.4375 128.515625 C 106.261719 129.695312 104.375 129.734375 103.160156 128.597656 C 103.121094 128.554688 103.121094 128.554688 103.082031 128.515625 L 92.714844 118.148438 C 91.535156 116.96875 91.496094 115.082031 92.636719 113.863281 C 93.8125 112.6875 95.699219 112.648438 96.914062 113.785156 C 96.957031 113.824219 96.957031 113.824219 96.996094 113.863281 Z M 107.359375 124.234375 " fill-opacity="1" fill-rule="nonzero"/><g clip-path="url(#677900fb2c)"><path fill="#f2ca4b" d="M 152.949219 88.84375 L 152.949219 106.046875 C 152.949219 107.699219 151.613281 109.074219 149.925781 109.074219 C 148.273438 109.074219 146.902344 107.738281 146.902344 106.046875 L 146.902344 88.84375 C 146.902344 87.191406 148.234375 85.816406 149.925781 85.816406 C 151.574219 85.816406 152.949219 87.191406 152.949219 88.84375 Z M 152.949219 88.84375 " fill-opacity="1" fill-rule="nonzero"/></g><path fill="#f2ca4b" d="M 205.210938 118.109375 L 194.84375 128.476562 C 193.667969 129.65625 191.742188 129.617188 190.5625 128.398438 C 189.425781 127.222656 189.425781 125.375 190.5625 124.195312 L 200.929688 113.824219 C 202.109375 112.648438 204.03125 112.6875 205.210938 113.90625 C 206.308594 115.082031 206.308594 116.96875 205.210938 118.109375 Z M 205.210938 118.109375 " fill-opacity="1" fill-rule="nonzero"/><path fill="#f2ca4b" d="M 133.238281 119.050781 C 132.492188 120.542969 130.644531 121.132812 129.191406 120.347656 C 117.058594 114.140625 111.5625 108.40625 111.875 102.277344 C 112.191406 96.34375 117.765625 91.472656 129.46875 86.917969 C 131.039062 86.328125 132.765625 87.113281 133.355469 88.644531 C 133.945312 90.179688 133.199219 91.90625 131.664062 92.535156 C 119.925781 97.132812 118 100.785156 117.921875 102.589844 C 117.804688 104.476562 119.53125 108.601562 131.941406 114.964844 C 133.433594 115.710938 134.023438 117.519531 133.238281 119.050781 C 133.277344 119.011719 133.238281 119.011719 133.238281 119.050781 Z M 133.238281 119.050781 " fill-opacity="1" fill-rule="nonzero"/><path fill="#f2ca4b" d="M 187.972656 102.277344 C 188.285156 108.367188 182.789062 114.101562 170.65625 120.347656 C 169.203125 121.132812 167.359375 120.582031 166.574219 119.089844 C 165.789062 117.636719 166.335938 115.789062 167.828125 115.003906 C 167.867188 115.003906 167.867188 114.964844 167.90625 114.964844 C 180.316406 108.601562 182.042969 104.476562 181.925781 102.589844 C 181.847656 100.824219 179.921875 97.132812 168.183594 92.535156 C 166.613281 91.945312 165.828125 90.21875 166.417969 88.644531 C 167.003906 87.074219 168.734375 86.289062 170.304688 86.878906 L 170.34375 86.878906 C 182.082031 91.511719 187.660156 96.382812 187.972656 102.277344 Z M 187.972656 102.277344 " fill-opacity="1" fill-rule="nonzero"/><g clip-path="url(#a1f5ae366c)"><path fill="#f2ca4b" d="M 149.925781 131.621094 C 123.460938 131.621094 96.484375 145.488281 69.742188 172.828125 C 96.484375 200.167969 123.460938 214.035156 149.925781 214.035156 C 176.390625 214.035156 203.363281 200.167969 230.105469 172.828125 C 203.363281 145.488281 176.390625 131.621094 149.925781 131.621094 Z M 187.699219 181.546875 C 189.152344 182.332031 189.699219 184.179688 188.914062 185.632812 C 188.875 185.671875 188.875 185.710938 188.835938 185.75 L 180.867188 198.832031 C 180.042969 200.207031 178.273438 200.679688 176.859375 199.894531 L 169.558594 195.964844 L 161.585938 200.324219 L 161.585938 208.261719 C 161.585938 209.910156 160.25 211.285156 158.5625 211.285156 L 141.285156 211.285156 C 139.636719 211.285156 138.261719 209.949219 138.261719 208.261719 L 138.261719 201.699219 L 131.117188 197.8125 L 124.519531 201.425781 C 123.105469 202.210938 121.339844 201.738281 120.515625 200.363281 L 111.640625 185.828125 C 110.777344 184.414062 111.207031 182.570312 112.660156 181.664062 C 112.699219 181.625 112.738281 181.625 112.777344 181.585938 L 119.492188 177.894531 L 119.492188 169.449219 L 112.074219 165.402344 C 110.621094 164.617188 110.070312 162.769531 110.855469 161.316406 C 110.894531 161.277344 110.894531 161.238281 110.933594 161.199219 L 120.277344 145.917969 C 121.105469 144.542969 122.871094 144.074219 124.285156 144.859375 L 132.410156 149.296875 L 138.183594 146.15625 L 138.183594 137.472656 C 138.183594 135.824219 139.519531 134.449219 141.207031 134.449219 L 157.304688 134.449219 C 158.957031 134.449219 160.328125 135.785156 160.328125 137.472656 L 160.328125 147.058594 L 167.867188 151.65625 L 176.859375 146.746094 C 178.273438 145.957031 180.042969 146.429688 180.867188 147.804688 L 188.914062 161.003906 C 189.777344 162.417969 189.308594 164.304688 187.894531 165.167969 C 187.855469 165.207031 187.816406 165.207031 187.777344 165.246094 L 180.550781 169.054688 L 180.550781 177.660156 Z M 187.699219 181.546875 " fill-opacity="1" fill-rule="nonzero"/></g><path fill="#f2ca4b" d="M 174.542969 179.425781 L 174.542969 167.25 C 174.542969 166.148438 175.132812 165.128906 176.113281 164.617188 L 182.121094 161.355469 L 177.214844 153.34375 L 169.242188 157.703125 C 168.300781 158.214844 167.160156 158.175781 166.21875 157.625 L 155.773438 151.222656 C 154.871094 150.671875 154.320312 149.691406 154.320312 148.628906 L 154.320312 140.378906 L 144.230469 140.378906 L 144.230469 147.84375 C 144.230469 148.945312 143.640625 149.964844 142.660156 150.476562 L 133.863281 155.269531 C 132.960938 155.777344 131.863281 155.777344 130.960938 155.269531 L 123.929688 151.417969 L 117.765625 161.59375 L 124.007812 165.011719 C 124.992188 165.519531 125.578125 166.542969 125.578125 167.640625 L 125.578125 179.664062 C 125.578125 180.761719 124.992188 181.785156 124.007812 182.292969 L 118.472656 185.320312 L 124.207031 194.707031 L 129.742188 191.683594 C 130.644531 191.171875 131.746094 191.171875 132.648438 191.683594 L 142.777344 197.261719 C 143.761719 197.773438 144.347656 198.792969 144.347656 199.894531 L 144.347656 205.234375 L 155.578125 205.234375 L 155.578125 198.519531 C 155.578125 197.417969 156.167969 196.398438 157.148438 195.847656 L 168.144531 189.835938 C 169.046875 189.324219 170.144531 189.324219 171.050781 189.835938 L 177.253906 193.214844 L 182.082031 185.28125 L 176.152344 182.019531 C 175.132812 181.546875 174.542969 180.566406 174.542969 179.425781 Z M 148.472656 192.980469 C 137.59375 192.980469 128.800781 184.179688 128.800781 173.300781 C 128.800781 162.417969 137.59375 153.617188 148.472656 153.617188 C 159.347656 153.617188 168.144531 162.417969 168.144531 173.300781 C 168.144531 184.140625 159.347656 192.941406 148.472656 192.980469 Z M 148.472656 192.980469 " fill-opacity="1" fill-rule="nonzero"/><path fill="#f2ca4b" d="M 162.136719 173.300781 C 162.136719 180.839844 156.011719 186.96875 148.472656 186.96875 C 140.933594 186.96875 134.808594 180.839844 134.808594 173.300781 C 134.808594 165.757812 140.933594 159.628906 148.472656 159.628906 C 156.011719 159.628906 162.097656 165.757812 162.136719 173.300781 Z M 162.136719 173.300781 " fill-opacity="1" fill-rule="nonzero"/></svg>